<?xml version="1.0"?>
<svg xmlns="http://www.w3.org/2000/svg" xmlns:xlink="http://www.w3.org/1999/xlink" version="1.1" id="Capa_1" x="0px" y="0px" viewBox="0 0 464.005 464.005" style="enable-background:new 0 0 464.005 464.005;" xml:space="preserve" width="512px" height="512px" class=""><g><g>
	<circle style="fill:#FDFDFD" cx="224.003" cy="178.751" r="40" data-original="#C1D6E8" class="" data-old_color="#FBFBFC"/>
	<circle style="fill:#FDFDFD" cx="376.003" cy="226.719" r="32" data-original="#C1D6E8" class="" data-old_color="#FBFBFC"/>
	<path style="fill:#FDFDFD" d="M136.003,218.751l-18.096-36.184c-1.253-4.027-3.144-7.827-5.6-11.256l-0.304-0.56h-0.184   c-13.051-17.571-37.876-21.236-55.447-8.185c-3.114,2.313-5.872,5.071-8.185,8.185h-0.184l-0.28,0.56   c-2.456,3.429-4.347,7.229-5.6,11.256l-18.12,36.184h24.184c13.051,17.571,37.876,21.236,55.447,8.185   c3.114-2.313,5.872-5.071,8.185-8.185H136.003z" data-original="#C1D6E8" class="" data-old_color="#FBFBFC"/>
</g><g>
	<path style="fill:#FDFDFD" d="M456.003,258.751c-4.418,0-8-3.582-8-8c0.044-26.432-5.405-52.585-16-76.8   c-1.892-3.993-0.188-8.763,3.804-10.655s8.763-0.188,10.655,3.804c0.07,0.148,0.136,0.298,0.197,0.45   c11.487,26.231,17.394,54.564,17.344,83.2C464.003,255.169,460.421,258.751,456.003,258.751z" data-original="#6D6C6B" class="" data-old_color="#905050"/>
	<path style="fill:#FDFDFD" d="M80.003,128.759c-4.418,0-8-3.581-8.001-7.999c0-1.907,0.681-3.751,1.921-5.201   c39.507-46.223,97.274-72.829,158.08-72.808c4.418,0,8,3.582,8,8s-3.582,8-8,8c-56.128-0.024-109.452,24.533-145.92,67.2   C84.564,127.731,82.342,128.757,80.003,128.759z" data-original="#6D6C6B" class="" data-old_color="#905050"/>
</g><path style="fill:#F6F5F5" d="M347.515,23.303l-3.512-2.048l-3.512,2.048c-15.848,9.207-34.499,12.348-52.488,8.84v77.904  c0.01,9.61,2.694,19.028,7.752,27.2c5.96,9.595,14.779,17.08,25.216,21.4l23.032,9.608l23.032-9.6  c10.437-4.32,19.256-11.805,25.216-21.4c5.058-8.172,7.742-17.59,7.752-27.2V32.143C382.013,35.651,363.362,32.51,347.515,23.303  L347.515,23.303z" data-original="#4091DB" class="active-path" data-old_color="#F2F2F2"/><path style="fill:#FDFDFD" d="M344.003,168.255l23.032-9.6c10.437-4.32,19.256-11.805,25.216-21.4  c5.058-8.172,7.742-17.59,7.752-27.2V32.143c-17.989,3.508-36.64,0.367-52.488-8.84l-3.512-2.048L344.003,168.255z" data-original="#2273AF" class="" data-old_color="#FCFDFD"/><path style="fill:#FDFDFD" d="M459.035,324.231l-53.272-53.264c-15.599-15.598-40.889-15.598-56.488,0l-14.544,13.8  c-8.186,7.803-21.107,7.636-29.088-0.376l-0.128-0.128l-9.512-9.512l-43.752-43.752c-15.602-15.599-40.894-15.599-56.496,0  l-45.56,45.6l-41.944-30.112c-15.613-15.573-40.883-15.573-56.496,0L4.971,293.783c-6.627,6.627-6.627,17.373,0,24  s17.373,6.627,24,0l19.032-19.576l-24,96.544h24v32c0,8.837,7.163,16,16,16s16-7.163,16-16c0,8.837,7.163,16,16,16s16-7.163,16-16  v-32h24l-24-96.544l26.744,13.824c3.462,1.789,7.303,2.722,11.2,2.72c0.432,0,0.84-0.104,1.272-0.128l-0.16,0.128  c0.328,0,0.64-0.08,0.968-0.096s0.64,0.096,0.968,0.096c4.5,0,8.817-1.787,12-4.968l2.16-2.16l24.848-24.872v144  c0,8.837,7.163,16,16,16s16-7.163,16-16c0,8.837,7.163,16,16,16c8.837,0,16-7.163,16-16v-144l16,16l9.512,9.512l13.688,13.688  c13.029,13.693,34.692,14.231,48.385,1.201c0.139-0.133,0.278-0.267,0.415-0.401v104c0,8.837,7.163,16,16,16s16-7.163,16-16  c0,8.837,7.163,16,16,16s16-7.163,16-16v-104l27.032,25.48c6.627,6.627,17.373,6.627,24,0S465.662,330.858,459.035,324.231  L459.035,324.231z" data-original="#C1D6E8" class="" data-old_color="#FBFBFC"/><script xmlns=""/></g> </svg>
